<svg height="256px" width="256px" version="1.1" id="Capa_1" xmlns="http://www.w3.org/2000/svg" xmlns:xlink="http://www.w3.org/1999/xlink" viewBox="-13.34 -13.34 84.68 84.68" xml:space="preserve" fill="#000000" stroke="#000000" stroke-width="0.638"><g id="SVGRepo_bgCarrier" stroke-width="0" transform="translate(0,0), scale(1)"><path transform="translate(-13.34, -13.34), scale(2.64625)" d="M16,27.771845685584204C17.774517079787984,27.885851734048238,19.653417572310644,28.577500829330134,21.275671216664847,27.849351559657244C22.898096660963063,27.121125177503085,23.319075187406245,24.94515577832298,24.72470373946328,23.855758532313224C26.47442816155313,22.49967839015106,29.38074928900897,22.62384045131483,30.48993649112319,20.708065763129852C31.53752743402372,18.898679387092304,30.36143338315838,16.592817044536368,30.13303264688161,14.514558411664671C29.905479566377206,12.444012748354023,30.35433908350726,10.105885847439586,29.13884898980534,8.414281998894047C27.91364718140931,6.709162306790702,25.630530925499894,6.156122439186992,23.64226540026302,5.481324071635582C21.94993665745759,4.906963827236441,20.076103263955986,5.352079966592567,18.38795974878834,4.765532665627795C16.419749663154757,4.081675930055538,15.05805055516397,1.8682361228827364,12.97648655448345,1.7754876078098771C10.94434851623181,1.684941371706017,8.945255327586665,2.8638746586257833,7.484714780588414,4.279715376346479C6.055119545926671,5.665557862714638,6.016477175284992,7.942011556458283,4.908651300121052,9.596406842448875C3.713578373807854,11.38109436422657,1.2576660069077206,12.315702926512834,0.7124543729475477,14.393214207779504C0.17480833233402227,16.441897040516984,1.3303890982563438,18.540155775027834,2.037541504569983,20.53667777299968C2.7332675101491053,22.500939313083773,3.1661738850093877,24.807501522211698,4.840506679646246,26.04805291796124C6.541586091997006,27.308421493451178,8.925443104407783,26.86712278851702,11.017749141024817,27.190318646074104C12.68843024265773,27.448386635123978,14.312982742395212,27.663461171610894,16,27.771845685584204" fill="#0391FD" strokewidth="0"></path></g><g id="SVGRepo_tracerCarrier" stroke-linecap="round" stroke-linejoin="round" stroke="#ff9900" stroke-width="2.784"> <g> <path style="fill:#0391FD;" d="M25,9.586C11.193,9.586,0,19.621,0,32c0,4.562,1.524,8.803,4.135,12.343 C3.792,48.433,2.805,54.194,0,57c0,0,8.47-1.191,14.273-4.651c0.006-0.004,0.009-0.01,0.014-0.013 c1.794-1.106,3.809-2.397,4.302-2.783c0.301-0.417,0.879-0.543,1.328-0.271c0.298,0.181,0.487,0.512,0.488,0.86 c0.003,0.582-0.008,0.744-3.651,3.018c2.582,0.81,5.355,1.254,8.245,1.254c13.807,0,25-10.035,25-22.414S38.807,9.586,25,9.586z"></path> <path style="fill:#0F71D3;" d="M58,23.414C58,11.035,46.807,1,33,1c-9.97,0-18.575,5.234-22.589,12.804 C14.518,11.153,19.553,9.586,25,9.586c13.807,0,25,10.035,25,22.414c0,4.735-1.642,9.124-4.437,12.743 C51.162,47.448,58,48.414,58,48.414c-2.805-2.805-3.792-8.566-4.135-12.657C56.476,32.217,58,27.976,58,23.414z"></path> <path style="fill:#FFFFFF;" d="M32.5,26h-14c-0.552,0-1-0.447-1-1s0.448-1,1-1h14c0.552,0,1,0.447,1,1S33.052,26,32.5,26z"></path> <path style="fill:#FFFFFF;" d="M38,33H13c-0.552,0-1-0.447-1-1s0.448-1,1-1h25c0.552,0,1,0.447,1,1S38.552,33,38,33z"></path> <path style="fill:#FFFFFF;" d="M38,40H13c-0.552,0-1-0.447-1-1s0.448-1,1-1h25c0.552,0,1,0.447,1,1S38.552,40,38,40z"></path> </g> </g><g id="SVGRepo_iconCarrier"> <g> <path style="fill:#0391FD;" d="M25,9.586C11.193,9.586,0,19.621,0,32c0,4.562,1.524,8.803,4.135,12.343 C3.792,48.433,2.805,54.194,0,57c0,0,8.47-1.191,14.273-4.651c0.006-0.004,0.009-0.01,0.014-0.013 c1.794-1.106,3.809-2.397,4.302-2.783c0.301-0.417,0.879-0.543,1.328-0.271c0.298,0.181,0.487,0.512,0.488,0.86 c0.003,0.582-0.008,0.744-3.651,3.018c2.582,0.81,5.355,1.254,8.245,1.254c13.807,0,25-10.035,25-22.414S38.807,9.586,25,9.586z"></path> <path style="fill:#0F71D3;" d="M58,23.414C58,11.035,46.807,1,33,1c-9.97,0-18.575,5.234-22.589,12.804 C14.518,11.153,19.553,9.586,25,9.586c13.807,0,25,10.035,25,22.414c0,4.735-1.642,9.124-4.437,12.743 C51.162,47.448,58,48.414,58,48.414c-2.805-2.805-3.792-8.566-4.135-12.657C56.476,32.217,58,27.976,58,23.414z"></path> <path style="fill:#FFFFFF;" d="M32.5,26h-14c-0.552,0-1-0.447-1-1s0.448-1,1-1h14c0.552,0,1,0.447,1,1S33.052,26,32.5,26z"></path> <path style="fill:#FFFFFF;" d="M38,33H13c-0.552,0-1-0.447-1-1s0.448-1,1-1h25c0.552,0,1,0.447,1,1S38.552,33,38,33z"></path> <path style="fill:#FFFFFF;" d="M38,40H13c-0.552,0-1-0.447-1-1s0.448-1,1-1h25c0.552,0,1,0.447,1,1S38.552,40,38,40z"></path> </g> </g></svg>